<svg xmlns="http://www.w3.org/2000/svg" viewBox="0 0 96 96" role="img" aria-label="Luz do Campo">
  <rect width="96" height="96" rx="22" fill="#F4F7FB"/>
  <circle cx="70" cy="22" r="12" fill="#FFCE32" stroke="#0B1F4D" stroke-width="3"/>
  <path d="M16 50 42 29l26 21" fill="none" stroke="#1D63FF" stroke-width="5" stroke-linecap="round" stroke-linejoin="round"/>
  <path d="M23 48v25h38V48" fill="#ffffff" stroke="#0B1F4D" stroke-width="4" stroke-linejoin="round"/>
  <path d="M56 61h24l-5 13H51l5-13Z" fill="#1D63FF" stroke="#0B1F4D" stroke-width="3" stroke-linejoin="round"/>
  <path d="M61 61 58 74M68 61l-2 13M75 61l-2 13M54 67h24" stroke="#ffffff" stroke-width="2" stroke-linecap="round"/>
  <path d="M39 48 31 61h8l-5 13 13-18h-8l0-8Z" fill="#FFCE32" stroke="#0B1F4D" stroke-width="2" stroke-linejoin="round"/>
  <path d="M22 78c10-10 23-10 34 0M58 80c7-8 15-8 22 0" fill="none" stroke="#3FA34D" stroke-width="4" stroke-linecap="round"/>
  <path d="M18 31c5-7 12-8 18-3" fill="none" stroke="#3FA34D" stroke-width="4" stroke-linecap="round"/>
</svg>
